<svg width="16" height="16" viewBox="0 0 16 16" fill="none" xmlns="http://www.w3.org/2000/svg">
<g id="Frame">
<path id="Vector" d="M11.4915 5.77705C11.2385 5.63208 10.9095 5.63208 10.6312 5.77705L8.65758 6.8885L7.31652 7.61338L5.3429 8.7248C5.08986 8.86978 4.76092 8.86978 4.48259 8.7248L2.9138 7.85496C2.66077 7.70999 2.48365 7.44424 2.48365 7.15428V5.43878C2.48365 5.14884 2.63546 4.88306 2.9138 4.73808L4.45728 3.89242C4.71032 3.74744 5.03925 3.74744 5.31758 3.89242L6.86108 4.73808C7.11409 4.88306 7.29123 5.14884 7.29123 5.43878V6.55024L8.63229 5.80121V4.68976C8.63229 4.39982 8.48049 4.13404 8.20214 3.98906L5.3429 2.39437C5.08986 2.2494 4.76092 2.2494 4.48259 2.39437L1.57273 3.98906C1.2944 4.13404 1.14258 4.39982 1.14258 4.68976V7.90331C1.14258 8.19325 1.2944 8.45905 1.57273 8.60402L4.48259 10.1987C4.73561 10.3437 5.06456 10.3437 5.3429 10.1987L7.31652 9.1114L8.65758 8.36239L10.6312 7.27509C10.8843 7.13012 11.2132 7.13012 11.4915 7.27509L13.035 8.12077C13.288 8.26573 13.4652 8.53154 13.4652 8.82147V10.537C13.4652 10.8269 13.3134 11.0927 13.035 11.2377L11.4915 12.1075C11.2385 12.2524 10.9095 12.2524 10.6312 12.1075L9.08777 11.2618C8.83471 11.1168 8.65758 10.8511 8.65758 10.5612V9.44969L7.31652 10.1987V11.3102C7.31652 11.6001 7.46836 11.8658 7.74666 12.0108L10.6565 13.6055C10.9095 13.7505 11.2385 13.7505 11.5168 13.6055L14.4267 12.0108C14.6797 11.8658 14.8569 11.6001 14.8569 11.3102V8.09659C14.8569 7.80665 14.705 7.5409 14.4267 7.39593L11.4915 5.77705Z" fill="#9351FF"/>
</g>
</svg>
