<svg width="64" height="40" viewBox="0 0 64 40" fill="none" xmlns="http://www.w3.org/2000/svg">
<g id="logo mobile">
<path id="Vector" d="M7.11586 14.5151L7.81198 18.1311H9.82299L6.36818 0.179443H3.4548L0 18.1311H1.85631L2.55242 14.5151H7.11586ZM4.79547 2.43623L6.83225 12.7969H2.81025L4.79547 2.43623Z" fill="black"/>
<path id="Vector_2" d="M11.3926 0.179443V18.1311H13.4036V0.179443H11.3926Z" fill="black"/>
<path id="Vector_3" d="M15.4712 0.179443V18.1311H17.4822V10.4632H18.9003C20.576 10.4632 21.53 11.1043 21.53 13.1303V15.9512C21.53 17.1566 21.6331 17.6182 21.8652 18.1311H23.902C23.5668 17.5156 23.541 16.7719 23.541 15.9769V13.1816C23.541 11.2582 22.9223 9.92458 21.2722 9.43738C22.8191 8.95009 23.5152 7.7191 23.5152 5.74441V4.28262C23.5152 1.61554 22.3292 0.179443 19.4932 0.179443H15.4712ZM17.4822 8.64238V2.00023H19.4416C20.937 2.00023 21.53 2.84653 21.53 4.46221V6.18041C21.53 8.12948 20.576 8.64238 18.9776 8.64238H17.4822Z" fill="black"/>
<path id="Vector_4" d="M25.6177 0.179443V18.1311H29.846C32.6562 18.1311 33.9453 16.4385 33.9453 13.6945V4.64171C33.9453 1.87203 32.6562 0.179443 29.846 0.179443H25.6177ZM27.6287 16.3103V2.00023H29.7944C31.264 2.00023 31.9601 2.89783 31.9601 4.53911V13.7714C31.9601 15.4127 31.264 16.3103 29.8201 16.3103H27.6287Z" fill="black"/>
<path id="Vector_5" d="M35.8401 0.179443V18.1311H37.8511V10.4632H39.2692C40.9449 10.4632 41.8989 11.1043 41.8989 13.1303V15.9512C41.8989 17.1566 42.002 17.6182 42.2341 18.1311H44.2709C43.9357 17.5156 43.9099 16.7719 43.9099 15.9769V13.1816C43.9099 11.2582 43.2912 9.92458 41.6411 9.43738C43.188 8.95009 43.8841 7.7191 43.8841 5.74441V4.28262C43.8841 1.61554 42.6981 0.179443 39.8621 0.179443H35.8401ZM37.8511 8.64238V2.00023H39.8105C41.3059 2.00023 41.8989 2.84653 41.8989 4.46221V6.18041C41.8989 8.12948 40.9449 8.64238 39.3465 8.64238H37.8511Z" fill="black"/>
<path id="Vector_6" d="M45.832 13.7972C45.832 16.5156 47.1985 18.3108 49.9571 18.3108C52.7416 18.3108 54.1081 16.5156 54.1081 13.7972V4.51357C54.1081 1.76958 52.7416 0 49.9571 0C47.1985 0 45.832 1.76958 45.832 4.51357V13.7972ZM47.8172 4.41106C47.8172 2.79537 48.5133 1.82087 49.9571 1.82087C51.4267 1.82087 52.097 2.79537 52.097 4.41106V13.8998C52.097 15.5411 51.4267 16.49 49.9571 16.49C48.5133 16.49 47.8172 15.5411 47.8172 13.8998V4.41106Z" fill="black"/>
<path id="Vector_7" d="M56.0076 0.179443V18.1311H58.0185V11.053H59.7975C62.6593 11.053 64 9.56558 64 6.71899V4.56472C64 1.84634 62.7882 0.179443 59.9522 0.179443H56.0076ZM58.0185 9.25788V2.00023H59.9522C61.4218 2.00023 62.0148 2.82084 62.0148 4.46221V6.8472C62.0148 8.56539 61.2929 9.25788 59.7975 9.25788H58.0185Z" fill="black"/>
<path id="Vector_8" d="M3.35141 32.0757H6.57417V39.7693H9.4618V21.8176H6.57417V29.5112H3.35141V21.8176H0.515381V39.7693H3.35141V32.0757Z" fill="#00C2B4"/>
<path id="Vector_9" d="M12.0339 21.8176V35.4865C12.0339 38.3588 13.4777 40.0001 16.2622 40.0001C19.0467 40.0001 20.4904 38.3588 20.4904 35.4865V21.8176H17.8091V35.666C17.8091 36.9483 17.2419 37.4099 16.3396 37.4099C15.4372 37.4099 14.87 36.9483 14.87 35.666V21.8176H12.0339Z" fill="#00C2B4"/>
<path id="Vector_10" d="M29.1385 39.7693H32.0518V21.8176H29.5253V32.563L26.6118 21.8176H23.054V39.7693H25.6064V26.7671L29.1385 39.7693Z" fill="#00C2B4"/>
<path id="Vector_11" d="M33.9021 24.3821H36.867V39.7693H39.703V24.3821H42.668V21.8176H33.9021V24.3821Z" fill="#00C2B4"/>
<path id="Vector_12" d="M47.3976 24.3821H52.2961V21.8176H44.5615V39.7693H52.2961V37.2047H47.3976V31.9475H51.2907V29.383H47.3976V24.3821Z" fill="#00C2B4"/>
<path id="Vector_13" d="M63.5154 39.7693C63.2318 39.1025 63.2061 38.4614 63.2061 37.5894V34.8197C63.2061 32.9476 62.7419 31.5885 61.3239 30.9986C62.5873 30.4088 63.1803 29.2035 63.1803 27.357V25.9465C63.1803 23.1768 61.917 21.8176 58.9778 21.8176H54.698V39.7693H57.534V32.4604H58.5137C59.8028 32.4604 60.3701 33.0759 60.3701 34.7428V37.5638C60.3701 39.0256 60.4731 39.3077 60.6278 39.7693H63.5154ZM58.9005 24.3821C59.9059 24.3821 60.3442 24.9463 60.3442 26.2286V27.9981C60.3442 29.4343 59.6997 29.8959 58.6426 29.8959H57.534V24.3821H58.9005Z" fill="#00C2B4"/>
</g>
</svg>
