<svg width="18" height="4" viewBox="0 0 18 4" fill="none" xmlns="http://www.w3.org/2000/svg">
<g id="Frame" clip-path="url(#clip0_813_19284)">
<path id="Vector" d="M0.868164 2.28918C0.868164 1.83085 1.02572 1.44771 1.34082 1.13977C1.66309 0.831827 2.08919 0.677856 2.61914 0.677856C3.14909 0.677856 3.57161 0.831827 3.88672 1.13977C4.20898 1.44771 4.37012 1.83085 4.37012 2.28918C4.37012 2.74752 4.20898 3.13066 3.88672 3.4386C3.57161 3.74654 3.14909 3.90051 2.61914 3.90051C2.08919 3.90051 1.66309 3.74654 1.34082 3.4386C1.02572 3.13066 0.868164 2.74752 0.868164 2.28918Z" fill="#9E9E9E"/>
<path id="Vector_2" d="M7.24902 2.28918C7.24902 1.83085 7.40658 1.44771 7.72168 1.13977C8.04395 0.831827 8.47005 0.677856 9 0.677856C9.52995 0.677856 9.95247 0.831827 10.2676 1.13977C10.5898 1.44771 10.751 1.83085 10.751 2.28918C10.751 2.74752 10.5898 3.13066 10.2676 3.4386C9.95247 3.74654 9.52995 3.90051 9 3.90051C8.47005 3.90051 8.04395 3.74654 7.72168 3.4386C7.40658 3.13066 7.24902 2.74752 7.24902 2.28918Z" fill="#9E9E9E"/>
<path id="Vector_3" d="M13.6299 2.28918C13.6299 1.83085 13.7874 1.44771 14.1025 1.13977C14.4248 0.831827 14.8509 0.677856 15.3809 0.677856C15.9108 0.677856 16.3333 0.831827 16.6484 1.13977C16.9707 1.44771 17.1318 1.83085 17.1318 2.28918C17.1318 2.74752 16.9707 3.13066 16.6484 3.4386C16.3333 3.74654 15.9108 3.90051 15.3809 3.90051C14.8509 3.90051 14.4248 3.74654 14.1025 3.4386C13.7874 3.13066 13.6299 2.74752 13.6299 2.28918Z" fill="#9E9E9E"/>
</g>
<defs>
<clipPath id="clip0_813_19284">
<rect width="18" height="4" fill="white"/>
</clipPath>
</defs>
</svg>
